<svg xmlns="http://www.w3.org/2000/svg" viewBox="0 0 120 42"><title>LLlogo</title><path d="M9.13,12.59H4.23V1.6a0.4,0.4,0,0,0-.39-0.39H1.39A0.39,0.39,0,0,0,1,1.6V15.23a0.39,0.39,0,0,0,.39.39H9.13a0.39,0.39,0,0,0,.39-0.39V13A0.39,0.39,0,0,0,9.13,12.59Z" style="fill:#212221"/><path d="M15.08,15.08L21.52,1.23A0.41,0.41,0,0,1,21.87,1h0.21a0.41,0.41,0,0,1,.35.23l6.44,13.85a0.36,0.36,0,0,1-.35.54H26.24a0.69,0.69,0,0,1-.72-0.51l-0.74-1.63h-5.6l-0.74,1.65a0.77,0.77,0,0,1-.74.49H15.43a0.36,0.36,0,0,1-.35-0.54m8.46-4.41L22,7.28h0l-1.55,3.39h3.13Z" style="fill:#212221"/><path d="M48.41,1.33A0.4,0.4,0,0,0,48,1H47.7a0.45,0.45,0,0,0-.35.21L42.58,10.1h0L37.76,1.21A0.45,0.45,0,0,0,37.41,1H37.08a0.4,0.4,0,0,0-.37.33L34.39,15.16a0.38,0.38,0,0,0,.39.45H37.2a0.4,0.4,0,0,0,.39-0.33L38.5,8.92h0L42,15.59a0.45,0.45,0,0,0,.35.23h0.37a0.48,0.48,0,0,0,.35-0.23l3.46-6.67h0l0.93,6.36a0.42,0.42,0,0,0,.39.33h2.43a0.38,0.38,0,0,0,.39-0.45Z" style="fill:#212221"/><path d="M84.15,4a0.39,0.39,0,0,0,.39-0.39V1.39A0.39,0.39,0,0,0,84.15,1H75.63a0.39,0.39,0,0,0-.39.39V15a0.39,0.39,0,0,0,.39.39h8.52A0.39,0.39,0,0,0,84.54,15V12.78a0.39,0.39,0,0,0-.39-0.39h-5.7V9.6h4.69a0.39,0.39,0,0,0,.39-0.39V7a0.4,0.4,0,0,0-.39-0.39H78.45V4h5.7Z" style="fill:#212221"/><path d="M118.61,1h-9.14a0.39,0.39,0,0,0-.39.39V3.63a0.39,0.39,0,0,0,.39.39h2.94V15a0.4,0.4,0,0,0,.39.39h2.47a0.4,0.4,0,0,0,.39-0.39V4h2.94A0.39,0.39,0,0,0,119,3.63V1.39A0.39,0.39,0,0,0,118.61,1Z" style="fill:#212221"/><path d="M24,37.91h-4.9v-11a0.41,0.41,0,0,0-.39-0.39H16.29a0.4,0.4,0,0,0-.39.39V40.54a0.4,0.4,0,0,0,.39.39H24a0.39,0.39,0,0,0,.39-0.39V38.3A0.39,0.39,0,0,0,24,37.91Z" style="fill:#212221"/><path d="M35.22,25.06a0.36,0.36,0,0,0,.56.18l3.75-1.69a0.42,0.42,0,0,0,.12-0.62l-0.7-1.22a0.41,0.41,0,0,0-.53-0.06l-3.5,2.14a0.32,0.32,0,0,0-.12.39Z" style="fill:#212221"/><path d="M41.39,29.55a0.39,0.39,0,0,0,.39-0.39V26.92a0.39,0.39,0,0,0-.39-0.39H32.87a0.39,0.39,0,0,0-.39.39V40.54a0.39,0.39,0,0,0,.39.39h8.52a0.39,0.39,0,0,0,.39-0.39V38.3a0.39,0.39,0,0,0-.39-0.39h-5.7V35.13h4.69a0.39,0.39,0,0,0,.39-0.39V32.5a0.4,0.4,0,0,0-.39-0.39H35.69V29.55h5.7Z" style="fill:#212221"/><path d="M61.66,26.32H59.19a0.39,0.39,0,0,0-.39.39V34h0l-8.21-7.91H50.05a0.39,0.39,0,0,0-.39.37l0,13.85a0.4,0.4,0,0,0,.39.39h2.45a0.39,0.39,0,0,0,.39-0.39V32.66h0l8.13,8.17a0.65,0.65,0,0,0,.27.1h0.33a0.39,0.39,0,0,0,.39-0.37V26.71A0.4,0.4,0,0,0,61.66,26.32Z" style="fill:#212221"/><path d="M68.48,40.19l6.44-13.85a0.42,0.42,0,0,1,.35-0.23h0.21a0.42,0.42,0,0,1,.35.23l6.44,13.85a0.36,0.36,0,0,1-.35.53H79.63a0.69,0.69,0,0,1-.72-0.51l-0.74-1.63h-5.6l-0.74,1.64a0.76,0.76,0,0,1-.74.49H68.83a0.36,0.36,0,0,1-.35-0.53m8.46-4.41-1.57-3.4h0l-1.55,3.4h3.13Z" style="fill:#212221"/><path d="M94.95,26.11a6.92,6.92,0,0,1,5,1.92,0.38,0.38,0,0,1,0,.57l-1.61,1.67a0.36,0.36,0,0,1-.51,0,4.2,4.2,0,0,0-2.78-1,4.21,4.21,0,0,0,0,8.42,4.36,4.36,0,0,0,2.76-1,0.41,0.41,0,0,1,.54,0l1.6,1.71a0.41,0.41,0,0,1,0,.55,7.06,7.06,0,0,1-5,2,7.41,7.41,0,1,1,0-14.82" style="fill:#212221"/><path d="M118.91,39.95l-5.25-6.83,4.82-6a0.47,0.47,0,0,0-.37-0.76h-2.59a0.6,0.6,0,0,0-.39.2l-4.57,5.7V26.81a0.5,0.5,0,0,0-.5-0.49h-2.41a0.49,0.49,0,0,0-.49.49V40.23a0.49,0.49,0,0,0,.49.49h2.41a0.5,0.5,0,0,0,.5-0.49V34.1l4.75,6.46a0.57,0.57,0,0,0,.37.14h2.84A0.48,0.48,0,0,0,118.91,39.95Z" style="fill:#212221"/><path d="M65.52,8.08c1-.51,2.39-1.67,2.39-3.25,0-2.16-2-3.83-4.43-3.83H58.29a0.39,0.39,0,0,0-.39.39V15a0.39,0.39,0,0,0,.39.39h5.5c2.45,0,4.49-1.67,4.49-4,0-1.89-1.67-2.9-2.76-3.35m-2.14,4.39H61.12V4h2a1.4,1.4,0,0,1,1.44,1.4,1.47,1.47,0,0,1-1.44,1.48H63a0.36,0.36,0,0,0-.35.35v2a0.35,0.35,0,0,0,.35.35h0.22A1.65,1.65,0,0,1,64.86,11a1.49,1.49,0,0,1-1.48,1.5" style="fill:#212221"/><path d="M102.32,12.79l-1.61-3.26a4.49,4.49,0,0,0,2.93-4.08A4.48,4.48,0,0,0,99.15,1H92.42a0.39,0.39,0,0,0-.39.39V15a0.39,0.39,0,0,0,.39.39h2.45A0.4,0.4,0,0,0,95.26,15V3.95h3.62a1.58,1.58,0,0,1,1.56,1.56A1.65,1.65,0,0,1,98.9,7.15H97a0.39,0.39,0,0,0-.35.6l0.89,2h0L100,15.23a0.38,0.38,0,0,0,.33.18h2.74a0.39,0.39,0,0,0,.35-0.6Z" style="fill:#212221"/><path d="M3.68,37.91H1.35a0.36,0.36,0,0,0-.35.35v2.33a0.35,0.35,0,0,0,.35.35H3.68A0.35,0.35,0,0,0,4,40.59V38.25A0.36,0.36,0,0,0,3.68,37.91Z" style="fill:#212221"/></svg>